<?xml version="1.0" encoding="UTF-8"?>
<svg width="91px" height="103px" viewBox="0 0 91 103" version="1.1" xmlns="http://www.w3.org/2000/svg" xmlns:xlink="http://www.w3.org/1999/xlink">
    <!-- Generator: Sketch 54.1 (76490) - https://sketchapp.com -->
    <title>mdpi/Kings</title>
    <desc>Created with Sketch.</desc>
    <defs>
        <polygon id="path-1" points="0 0.0324125598 90.7902587 0.0324125598 90.7902587 102.96 0 102.96"></polygon>
        <polygon id="path-3" points="0 103 91 103 91 0 0 0"></polygon>
    </defs>
    <g id="Site" stroke="none" stroke-width="1" fill="none" fill-rule="evenodd">
        <g id="Desktop:-Who-We-Are-" transform="translate(-693.000000, -1129.000000)">
            <g id="Kings" transform="translate(693.000000, 1129.000000)">
                <g id="Group-3">
                    <mask id="mask-2" fill="white">
                        <use xlink:href="#path-1"></use>
                    </mask>
                    <g id="Clip-2"></g>
                    <path d="M90.7902587,0.0324125598 L77.7965935,12.9951392 L66.9371201,2.21775422 L56.028679,12.9966011 L45.1872794,2.21775422 L34.3500831,12.9951392 L23.5059515,2.21775422 L12.6708568,13.0005692 L0,0.290961201 L0,57.6868799 C0,82.6495632 20.1524018,102.960042 45.2574734,102.960042 C70.3682194,102.960042 90.7902587,82.6495632 90.7902587,57.6868799 L90.7902587,0.0324125598 Z" id="Fill-1" fill="#FFFFFF" mask="url(#mask-2)"></path>
                </g>
                <path d="M4,66 C5.1062014,71.3660424 7.29174519,76.4078502 10.5143934,81 C12.4603721,77.7342271 16.3536292,73.6765255 24,71.9525257 C23.412784,70.0736646 22.8894665,68.0755995 22.4454264,66 L4,66 Z" id="Fill-4" fill="#63717A"></path>
                <path d="M14,84.9713422 C21.8323289,94.4535935 33.1103568,99.9194083 45,100 C43.8788081,99.4084992 42.7816374,98.757191 41.7263497,98.055831 C36.6864271,94.6909149 29.7574573,88.1415657 25.283366,76 C18.2414764,77.5859601 15.2610072,81.7090745 14,84.9713422" id="Fill-6" fill="#63717A"></path>
                <path d="M29,76.1684484 C32.2584321,84.1755126 37.1821072,90.328409 43.6441938,94.4584833 C47.9166459,97.1931955 52.0112811,98.4363775 54.7109804,99 C61.4667599,97.4588414 67.7769436,94.2764437 73,89.7781717 C68.8790293,89.3372818 64.6537703,87.0191602 60.1935991,84.5745993 C53.2294536,80.7546513 44.5572964,76 32.8489782,76 C31.5838233,76 30.2925437,76.059307 29,76.1684484" id="Fill-8" fill="#63717A"></path>
                <path d="M31,45 L31,63 L37.2864385,63 L37.2864385,48.5611161 L42.008943,48.5611161 L42.008943,63 L48,63 L48,47.520897 C48,46.1495933 47.1610742,45 46.1324266,45 L31,45 Z" id="Fill-10" fill="#592C82"></path>
                <path d="M51,45 L51,60.4412345 C51,61.8155 51.8331629,63 52.8605678,63 L62.784515,63 L68,63 L68,52.0714588 L61.9555933,52.064689 L61.9555933,59.4342297 L57.227622,59.4342297 L57.227622,48.4739552 L68,48.4739552 L68,45 L51,45 Z" id="Fill-12" fill="#592C82"></path>
                <polygon id="Fill-14" fill="#592C82" points="14.7142215 45 11.2765766 52.2688402 9.29131381 52.2688402 9.29131381 45 3 45 3 63 9.29131381 63 9.29131381 55.7569696 11.2765766 55.7569696 14.7142215 63 21 63 16.5668496 54.0131164 21 45"></polygon>
                <mask id="mask-4" fill="white">
                    <use xlink:href="#path-3"></use>
                </mask>
                <g id="Clip-17"></g>
                <polygon id="Fill-16" fill="#592C82" mask="url(#mask-4)" points="23 63 29 63 29 45 23 45"></polygon>
                <path d="M86.9915518,49.8676837 L86.9915518,45 L70,45 L70,53.2229561 C70,54.5942598 70.8524045,55.7081002 71.8993348,55.7081002 L80.5574683,55.7081002 L80.5574683,59.631188 L70,59.631188 L70,63 L87,63 L87,54.7368483 C87,53.4584176 86.2769184,52.2572046 85.3036392,52.2572046 L76.3773287,52.2572046 L76.3773287,48.4881294 L80.8425419,48.4881294 L80.8425419,49.8676837 L86.9915518,49.8676837 Z" id="Fill-18" fill="#592C82" mask="url(#mask-4)"></path>
                <polygon id="Fill-19" fill="#592C82" mask="url(#mask-4)" points="69.3395057 26.5524585 64.0382461 26.5524585 74.9717897 15.9880514 66.6868652 8 55.7010434 18.5484632 44.7827387 8 25.5875523 26.5524585 20.2865044 26.5524585 31.2018459 15.9719032 22.947611 8 12.0354442 18.5484632 3 9.88586613 3 27.1949121 3 41 87 41 87 27.6112907 87 9.48440926"></polygon>
                <path d="M22,37.2342621 C22,37.6559147 22.3424345,38 22.7594022,38 L27,38 L27,36.8552141 L23.5439023,36.8552141 L23.5439023,33.1421111 L27,33.1421111 L27,32 L22,32 L22,37.2342621 Z" id="Fill-20" fill="#FFFFFF" mask="url(#mask-4)"></path>
                <path d="M16.5426301,35.2891578 L18.4562291,35.2891578 L18.4562291,33.1436395 L16.5426301,33.1436395 L16.5426301,35.2891578 Z M15,32 L15,38 L16.5424399,38 L16.5424399,36.4301226 L18.4562291,36.4301226 L18.4562291,38 L20,38 L20,32.7645916 C20,32.3154275 19.64101,32 19.1521524,32 L15,32 Z" id="Fill-21" fill="#FFFFFF" mask="url(#mask-4)"></path>
                <path d="M80.5524239,36.8466168 L82.4538351,36.8466168 L82.4538351,33.1411559 L80.5524239,33.1411559 L80.5524239,36.8466168 Z M83.2449359,32 L79.7550641,32 C79.3402625,32 79,32.3404553 79,32.7596243 L79,37.2344531 C79,37.653622 79.3402625,38 79.7550641,38 L83.2449359,38 C83.6608755,38 84,37.6511384 84,37.2319694 L84,32.7596243 C84,32.3404553 83.6608755,32 83.2449359,32 L83.2449359,32 Z" id="Fill-22" fill="#FFFFFF" mask="url(#mask-4)"></path>
                <path d="M6,34.8073237 C6,35.22783 6.3424345,35.5705779 6.76073316,35.5705779 L9.45609765,35.5705779 L9.45609765,36.8552141 L6,36.8552141 L6,38 L11,38 L11,35.1901926 C11,34.7998726 10.7098528,34.4733641 10.3215956,34.4320968 L10.2791953,34.4282758 L7.54124045,34.4282758 L7.54124045,33.1423022 L11,33.1423022 L11,32 L6,32 L6,34.8073237 Z" id="Fill-23" fill="#FFFFFF" mask="url(#mask-4)"></path>
                <path d="M39.5429494,35.2891578 L41.4557203,35.2891578 L41.4557203,33.1436395 L39.5429494,33.1436395 L39.5429494,35.2891578 Z M42.2358419,32 L38,32 L38,38 L39.5429494,38 L39.5429494,36.4301226 L41.4557203,36.4301226 L41.4557203,38 L43,38 L43,32.7645916 C43,32.3442764 42.6565945,32 42.2358419,32 L42.2358419,32 Z" id="Fill-24" fill="#FFFFFF" mask="url(#mask-4)"></path>
                <polygon id="Fill-25" fill="#FFFFFF" mask="url(#mask-4)" points="71 33.1409285 72.7311713 33.1409285 72.7311713 38 74.2711098 38 74.2711098 33.1409285 76 33.1409285 76 32 71 32"></polygon>
                <path d="M53.189858,32 L45,32 L45,38 L46.6470588,38 L46.6470588,33.1426479 L48.6659229,33.1426479 L48.6659229,38 L50.335497,38 L50.335497,33.1426479 L52.3529412,33.1426479 L52.3529412,38 L54,38 L54,32.7638031 C54,32.3446475 53.6346856,32 53.189858,32" id="Fill-26" fill="#FFFFFF" mask="url(#mask-4)"></path>
                <path d="M68.238126,32 L64,32 L64,38 L65.5425714,38 L65.5425714,33.1426479 L67.4560977,33.1426479 L67.4560977,38 L69,38 L69,32.7638031 C69,32.3446475 68.6575655,32 68.238126,32" id="Fill-27" fill="#FFFFFF" mask="url(#mask-4)"></path>
                <path d="M58,37.2342621 C58,37.6559147 58.3402215,38 58.7599802,38 L63,38 L63,36.8552141 L59.5450774,36.8552141 L59.5450774,35.5692406 L63,35.5692406 L63,34.4294221 L59.5450774,34.4294221 L59.5450774,33.1421111 L63,33.1421111 L63,32 L58,32 L58,37.2342621 Z" id="Fill-28" fill="#FFFFFF" mask="url(#mask-4)"></path>
                <path d="M30.5154289,34.6760707 L32.3952854,34.6760707 L32.3952854,33.1423022 L30.5154289,33.1423022 L30.5154289,34.6760707 Z M33.1011656,35.8170355 L33.9120218,35.8170355 L33.9120218,32.7634453 C33.9120218,32.3154275 33.5520771,32 33.0791243,32 L29,32 L29,38 L30.5154289,38 L30.5154289,35.8170355 L31.614876,35.8170355 L32.5224895,38 L34,38 L33.1011656,35.8170355 Z" id="Fill-29" fill="#FFFFFF" mask="url(#mask-4)"></path>
                <path d="M31.8362064,71.0161585 C40.6803504,70.8372629 49.4266073,73.0421151 60.5869951,79.3740625 C68.8356591,84.0540888 72.4604111,85.4737995 74.9337345,84.8679702 C77.2127476,84.309416 79.3269423,82.9692607 83.056693,75.1197203 C84.4804487,72.1234788 85.5032437,68.5728482 86,66.0006248 L26,66 C26.4174844,67.8097823 26.8276482,69.6097765 27.3764855,71.2656544 C28.8288962,71.1032114 30.3302505,71.0161585 31.8362064,71.0161585" id="Fill-30" fill="#63717A" mask="url(#mask-4)"></path>
            </g>
        </g>
        <g id="Raw-Engineering-BLACK"></g>
    </g>
</svg>