<?xml version="1.0" encoding="UTF-8"?>
<svg width="147px" height="58px" viewBox="0 0 147 58" version="1.1" xmlns="http://www.w3.org/2000/svg" xmlns:xlink="http://www.w3.org/1999/xlink">
    <!-- Generator: Sketch 54.1 (76490) - https://sketchapp.com -->
    <title>mdpi/nba</title>
    <desc>Created with Sketch.</desc>
    <defs>
        <polygon id="path-1" points="0.0126977516 0.0585858586 11.9796407 0.0585858586 11.9796407 57.9999805 0.0126977516 57.9999805"></polygon>
    </defs>
    <g id="Site" stroke="none" stroke-width="1" fill="none" fill-rule="evenodd">
        <g id="Desktop:-Who-We-Are-" transform="translate(-1090.000000, -1151.000000)">
            <g id="nba" transform="translate(1090.000000, 1151.000000)">
                <g id="Group-3" transform="translate(13.000000, 0.000000)">
                    <mask id="mask-2" fill="white">
                        <use xlink:href="#path-1"></use>
                    </mask>
                    <g id="Clip-2"></g>
                    <path d="M8.15591186,0.05856633 L2.25760678,0.05856633 C2.37964068,0.117152189 3.66099661,0.937354209 3.90506441,1.21075488 C4.1491322,1.48415556 4.08811525,1.95284242 3.96608136,2.48011515 C3.86438644,2.89119259 3.7352339,3.2956303 3.57964068,3.69088956 C3.57964068,3.69088956 3.39658983,4.12051919 3.45760678,4.17910505 C3.5212678,4.27362357 3.56275932,4.38024983 3.57964068,4.49156296 C3.57964068,4.49156296 2.82709831,5.81950909 2.76608136,5.87809495 C2.70506441,5.93668081 1.7491322,7.59661347 1.42370847,7.71378519 C1.28133559,7.75284242 1.17964068,8.10435758 1.30167458,8.18247205 L2.25760678,8.86597374 L2.64404746,8.9245596 L3.59997966,9.5299468 C3.69618305,9.76468081 3.87638644,9.9586 4.10845424,10.0767481 C4.85672542,10.584297 5.52181017,11.1965192 6.08133559,11.8929098 C6.65082712,12.6349973 6.77286102,14.2754013 6.83387797,15.525233 C6.89489492,16.7750646 7.42370847,19.5481286 7.52540339,19.7238862 C7.62709831,19.8996438 8.54235254,22.0282633 8.72540339,22.5750646 C8.90845424,23.121866 9.05082712,24.3326404 9.05082712,24.3326404 L9.92540339,25.3676572 C10.7806576,25.7668222 11.4949627,26.3981825 11.9796407,27.1838189 L11.9796407,3.71041818 C11.9662169,1.69135421 10.2589627,0.0607144781 8.15591186,0.05856633 M7.93218305,33.745435 C5.3971322,33.7716034 3.31991186,31.8195226 3.29265763,29.3854754 C3.27170847,27.5105327 4.48838644,25.8281421 6.32540339,25.1918997 C6.40614915,25.0405529 6.50153898,24.8966269 6.61014915,24.76227 C6.37136949,24.2644855 6.09964068,23.781738 5.79658983,23.3171522 C5.20675932,22.4578929 4.3932,20.4073879 4.12879322,19.684829 C3.86438644,18.96227 3.4372678,15.7986337 3.3152339,15.7400478 C3.1932,15.681462 3.13218305,15.7400478 2.56269153,15.9939199 C1.9932,16.2477919 1.48472542,17.1461084 1.28133559,17.575738 C1.07794576,18.0053677 0.0813355932,20.6222027 0.0203186441,20.6222027 C-0.0406983051,20.6222027 0.284725424,20.915132 0.284725424,20.915132 C0.580861017,21.0840545 0.854013559,21.2873475 1.09828475,21.5205192 C1.28133559,21.7743912 2.82709831,27.0861758 2.82709831,27.0861758 L2.44065763,27.691563 C2.44065763,27.691563 2.52201356,28.1993071 2.68472542,28.9023374 C2.84743729,29.6444249 3.0711661,30.6013273 3.3152339,31.4605865 C3.82370847,33.1595764 4.3932,35.8349973 4.3932,35.8349973 C4.3932,35.8349973 5.16608136,37.0653003 5.79658983,38.3346606 C6.42709831,39.6040209 7.17964068,44.2713609 7.17964068,44.3299468 C7.17964068,44.3885327 8.25760678,46.0484653 8.37964068,46.7124384 C8.50167458,47.3764114 8.07455593,48.8996438 8.07455593,48.8996438 C8.07455593,48.8996438 8.13557288,50.0518323 8.19658983,50.3057044 C8.24601356,50.6007818 8.34933559,50.8849232 8.50167458,51.145435 C8.68472542,51.3993071 8.68472542,51.9265798 8.68472542,52.1804519 C8.68472542,52.4343239 9.70167458,55.5784316 9.70167458,55.9299468 C9.70167458,56.281462 9.01014915,57.3360074 8.74574237,57.511765 C8.68472542,57.5508222 8.27794576,57.9609232 8.2372678,57.9999805 C10.2919119,57.9339737 11.9259458,56.3220815 11.9389627,54.3481286 L11.9389627,31.4801152 C11.1435051,32.8894956 9.60160678,33.7612532 7.93218305,33.745435" id="Fill-1" fill="#C7102E" mask="url(#mask-2)"></path>
                </g>
                <path d="M125.802569,33.9817832 L128.021584,10.1005896 L130.221133,33.9817832 L125.802569,33.9817832 Z M138.727357,1.91633991e-05 L120.508077,1.91633991e-05 L110.152675,58 L122.435117,58 L124.498411,42.2619019 L131.116525,42.2619019 L132.634799,58 L147,58 L138.727357,1.91633991e-05 Z M94.8531515,20.4752065 C94.8531515,23.235246 93.8798994,24.1944087 91.6803496,24.1944087 L90.025821,24.1944087 L90.025821,8.33886217 L91.6803496,8.33886217 C93.8798994,8.33886217 94.8531515,9.29802487 94.8531515,12.0580645 L94.8531515,20.4752065 Z M94.8531515,46.9989911 C94.8531515,49.347961 93.8798994,49.7590307 91.6803496,49.7590307 L90.025821,49.7590307 L90.025821,31.3979163 L91.6803496,31.3979163 C93.8798994,31.3979163 94.8531515,31.808986 94.8531515,34.1579559 L94.8531515,46.9989911 Z M108.692797,16.1687617 L108.692797,11.7448685 C108.692797,2.91665674 100.965175,1.91633991e-05 92.4005561,1.91633991e-05 L76.244571,1.91633991e-05 L76.244571,58 L92.4005561,58 C103.164725,58 108.692797,54.9659139 108.692797,45.0219415 L108.692797,39.9129321 C108.692797,30.6540759 105.519995,27.8940363 98.3373941,27.3459433 L98.3373941,27.0718968 C107.174523,25.6820897 108.692797,21.6888409 108.692797,16.1687617 L108.692797,16.1687617 Z M72.0401218,58 L55.6116261,58 L45.6649894,12.5670079 L45.6649894,58 L34.900821,58 L34.900821,1.91633991e-05 L54.0933528,1.91633991e-05 L61.1396981,37.7009854 L61.2759534,1.91633991e-05 L72.0401218,1.91633991e-05 L72.0401218,58 Z M13.7228549,51.8339541 L14.2873411,51.8339541 L14.0148305,48.8194428 L13.7228549,51.8339541 Z M9.40161547,51.5207581 L9.1875,51.5207581 L9.1875,53.8501532 L9.40161547,53.8501532 C9.67412606,53.8501532 9.81038136,53.791429 9.81038136,53.4978078 L9.81038136,51.8731036 C9.81038136,51.5599076 9.67412606,51.5207581 9.40161547,51.5207581 L9.40161547,51.5207581 Z M9.40161547,48.5845458 L9.1875,48.5845458 L9.1875,50.6007449 L9.40161547,50.6007449 C9.67412606,50.6007449 9.81038136,50.4832964 9.81038136,50.130951 L9.81038136,49.0543398 C9.81038136,48.721569 9.67412606,48.5845458 9.40161547,48.5845458 L9.40161547,48.5845458 Z M14.5987818,54.8876149 L14.4041314,52.8909906 L13.5671345,52.8909906 L13.2946239,54.8876149 L11.7374206,54.8876149 L13.0610434,47.5275094 L15.3773835,47.5275094 L16.4284958,54.8876149 L14.5987818,54.8876149 Z M11.5622352,49.582858 C11.5622352,50.287549 11.3675847,50.7964924 10.2580773,50.9726652 L10.2580773,51.0118147 C11.1729343,51.0901137 11.5622352,51.4228844 11.5622352,52.5973693 L11.5622352,53.243336 C11.5622352,54.49612 10.8614936,54.8876149 9.49894068,54.8876149 L7.45511123,54.8876149 L7.45511123,47.5275094 L9.49894068,47.5275094 C10.5889831,47.5275094 11.5622352,47.8994296 11.5622352,49.0151903 L11.5622352,49.582858 Z M6.91009004,54.8876149 L4.82733051,54.8876149 L3.56210275,49.1326388 L3.56210275,54.8876149 L2.19954979,54.8876149 L2.19954979,47.5275094 L4.63268008,47.5275094 L5.52807203,52.3233228 L5.54753708,47.5275094 L6.91009004,47.5275094 L6.91009004,54.8876149 Z M18.1803496,55.0833624 C18.2387447,53.8501532 18.4333951,52.4799208 18.4333951,52.4799208 C18.4333951,52.4799208 18.1414195,51.7948046 17.9662341,51.3250106 C17.7910487,50.8552167 17.9662341,50.9335157 18.0246292,50.7573429 C18.0563573,50.3505796 17.9537765,49.9445994 17.7326536,49.6024327 C17.3628178,49.0543398 16.5063559,47.2338881 16.4479608,47.2338881 C16.3895657,47.2338881 16.7399364,46.7445194 16.7399364,46.7445194 L16.0002648,45.1002405 C16.0002648,45.1002405 11.8152807,41.9487059 10.0439619,40.304427 C8.27264301,38.6601481 5.00251589,33.1204942 4.71054025,33.0813447 C4.39909958,33.0030457 3.79568326,33.1987932 3.79568326,33.1987932 C3.79568326,33.1987932 3.60103284,32.6507002 3.36745233,31.8481355 C3.25066208,31.4566406 2.70564089,30.1451324 2.19954979,28.8727737 C1.71292373,27.6395645 1.24576271,26.4455049 1.24576271,26.0931594 C1.24576271,25.3493189 1.24576271,24.331432 1.42094809,23.5875915 C1.59613347,22.8437511 2.64724576,21.7671399 2.56938559,21.7671399 C2.49152542,21.7671399 2.31634004,21.3952197 2.31634004,21.3952197 C2.31634004,21.3952197 1.53773835,21.9237379 0.564486229,21.1407479 C-0.40876589,20.357758 0.311440678,18.0870871 2.06329449,13.8393666 C3.81514831,9.5916461 4.57428496,8.7499319 4.94412076,8.45631067 C5.31395657,8.16268943 5.48914195,8.02566619 5.54753708,8.02566619 C6.03416314,8.00609144 6.92955508,7.98651669 7.37725106,7.96694194 L7.63029661,7.67332071 L9.34322034,7.59502172 C9.34322034,7.59502172 10.4527278,7.53629747 10.0050318,4.73710838 C10.0050318,4.73710838 9.63519597,3.81709519 9.63519597,3.64092245 C9.63519597,3.46474971 9.88824153,3.22985272 9.92717161,3.17112848 C10.5111229,2.58388601 10.5111229,2.7013345 10.5889831,0.978756606 L11.3870498,0.371939392 L11.8542108,1.91633992e-05 L3.65942797,1.91633992e-05 C1.65083024,-0.00644050372 0.0149880826,1.62100412 0,3.64092245 L0,54.339522 C0.012846928,56.3633552 1.64674258,57.9978468 3.65942797,58 L18.8616261,58 C18.8616261,58 18.1219544,57.0799868 18.1803496,55.0833624 L18.1803496,55.0833624 Z" id="Fill-4" fill="#1D428A"></path>
            </g>
        </g>
        <g id="Raw-Engineering-BLACK"></g>
    </g>
</svg>